<?xml version="1.0" standalone="no"?>
<!DOCTYPE svg PUBLIC "-//W3C//DTD SVG 20010904//EN"
 "http://www.w3.org/TR/2001/REC-SVG-20010904/DTD/svg10.dtd">
<svg version="1.0" xmlns="http://www.w3.org/2000/svg"
 width="266.000000pt" height="266.000000pt" viewBox="0 0 266.000000 266.000000"
 preserveAspectRatio="xMidYMid meet">
<metadata>
Created by potrace 1.14, written by Peter Selinger 2001-2017
</metadata>
<g transform="translate(0.000000,266.000000) scale(0.100000,-0.100000)"
fill="#000000" stroke="none">
<path d="M0 1330 l0 -1290 1330 0 1330 0 0 1290 0 1290 -1330 0 -1330 0 0
-1290z m1548 884 c283 -74 525 -297 621 -574 129 -371 7 -789 -301 -1026 -333
-257 -793 -252 -1129 14 -328 259 -431 713 -250 1102 126 272 394 467 701 511
88 12 254 0 358 -27z"/>
<path d="M1205 2223 c-339 -42 -643 -292 -746 -615 -33 -104 -42 -185 -36
-318 6 -133 32 -241 84 -345 89 -178 246 -334 418 -415 28 -13 58 -27 67 -31
9 -5 54 -18 100 -31 115 -31 316 -30 433 1 159 42 317 134 426 248 50 51 159
200 159 216 0 4 11 30 24 59 48 107 61 180 60 353 -1 147 -3 167 -28 245 -34
102 -63 162 -124 253 -58 86 -184 205 -272 257 -172 100 -381 146 -565 123z
m145 -121 c0 -55 -12 -72 -52 -72 -21 0 -31 6 -38 26 -15 39 -13 84 5 84 11 0
15 -11 15 -39 0 -24 5 -41 14 -44 20 -8 26 2 26 43 0 20 3 40 7 43 16 16 23 4
23 -41z m-119 -17 c6 -46 -2 -77 -17 -63 -3 3 -9 31 -13 62 -7 49 -6 56 8 54
11 -2 18 -19 22 -53z m196 18 l9 -38 19 33 c28 46 45 41 45 -12 0 -52 -8 -76
-24 -76 -8 0 -11 11 -8 33 4 32 4 32 -13 10 -21 -30 -31 -29 -43 5 l-10 27 -1
-26 c-1 -14 -4 -28 -7 -32 -10 -9 -33 4 -29 16 2 7 9 31 15 55 13 52 35 54 47
5z m-255 -22 c-2 -12 2 -28 8 -36 22 -26 0 -38 -26 -14 l-24 22 0 -27 c0 -41
-21 -27 -36 25 -19 61 -18 67 14 71 37 5 68 -14 64 -41z m-90 -83 c-10 -10
-14 -10 -21 1 -7 10 -13 11 -30 2 -11 -6 -20 -17 -18 -23 1 -6 -4 -13 -10 -15
-13 -5 -17 21 -13 82 3 47 21 48 65 5 32 -32 37 -42 27 -52z m-129 2 c34 -48
26 -78 -10 -34 l-23 29 6 -32 c7 -36 -2 -41 -39 -22 -21 12 -21 12 -4 -14 20
-32 21 -37 4 -37 -18 0 -60 77 -53 97 6 14 9 14 31 -1 32 -21 37 -20 35 7 -5
61 13 63 53 7z m841 -12 c-4 -7 -18 -27 -31 -44 -13 -17 -23 -36 -23 -42 0 -7
-4 -12 -10 -12 -19 0 -10 32 21 71 28 36 60 55 43 27z m-352 -49 c205 -42 397
-223 461 -434 12 -41 19 -95 19 -170 1 -94 -2 -121 -25 -190 -102 -308 -427
-486 -741 -405 -461 118 -619 700 -279 1032 60 59 132 110 174 123 13 4 29 11
35 16 41 33 253 49 356 28z m-624 -26 c2 -13 13 -24 28 -27 34 -9 19 -28 -17
-22 -28 4 -39 -7 -19 -19 6 -3 10 -10 10 -16 0 -19 -27 -8 -58 26 -27 28 -31
38 -23 54 20 37 74 40 79 4z m1009 -36 c-22 -33 -43 -43 -61 -28 -9 8 -16 21
-16 31 0 23 28 34 47 19 17 -15 31 -3 15 13 -7 7 -12 17 -12 23 1 5 10 -1 21
-14 17 -21 18 -26 6 -44z m28 -34 c-19 -28 -21 -28 30 -7 19 8 19 -6 -1 -34
-8 -12 -11 -22 -5 -22 5 0 13 5 16 10 3 6 16 10 28 10 l21 0 -20 -14 c-34 -24
-74 -31 -74 -13 0 9 5 19 10 22 20 12 10 26 -11 15 -35 -19 -39 -6 -12 40 15
24 28 39 31 32 2 -7 -4 -24 -13 -39z m-1139 12 c-21 -52 -21 -51 1 -32 24 21
36 12 22 -15 -16 -29 0 -37 21 -10 27 33 36 8 10 -28 l-21 -30 -45 32 c-24 17
-44 35 -44 38 0 4 9 19 21 34 22 28 45 35 35 11z m-61 -95 c-5 -14 3 -23 30
-35 19 -10 35 -21 35 -24 0 -19 -16 -18 -53 1 -27 13 -42 17 -45 9 -2 -6 -10
-11 -18 -11 -16 0 -9 23 19 62 22 29 42 28 32 -2z m1375 -40 c0 -14 -17 -12
-23 3 -4 7 -8 3 -13 -11 -5 -18 -9 -20 -20 -11 -11 9 -20 8 -38 -5 -15 -9 -27
-12 -31 -6 -10 16 87 60 108 49 9 -6 17 -14 17 -19z m5 -30 c3 -5 1 -10 -4
-10 -6 0 -11 5 -11 10 0 6 2 10 4 10 3 0 8 -4 11 -10z m-1401 -31 c47 -21 56
-41 20 -47 -45 -7 -50 -13 -21 -28 58 -31 19 -46 -43 -16 -44 22 -45 42 0 57
l35 12 -28 7 c-15 3 -27 13 -27 21 0 20 9 19 64 -6z m1376 14 c0 -9 -57 -43
-71 -43 -20 0 -7 17 24 33 37 18 47 20 47 10z m20 -47 c0 -2 3 -13 7 -23 6
-16 5 -16 -10 -4 -14 11 -22 11 -47 1 -40 -17 -50 -6 -13 14 26 14 63 21 63
12z m24 -73 c12 -43 17 -91 9 -96 -21 -12 -73 -18 -73 -8 0 6 11 11 24 11 30
0 56 27 34 35 -8 3 -27 1 -41 -4 -18 -7 -27 -7 -27 0 0 5 14 15 30 20 17 6 30
17 30 25 0 11 -10 13 -42 8 -30 -5 -40 -3 -33 4 6 6 24 12 40 15 17 2 33 5 37
6 4 0 9 -7 12 -16z m-1411 -40 c-3 -8 -12 -12 -20 -9 -8 4 -32 9 -54 12 -28 5
-39 11 -39 24 0 17 4 17 59 3 45 -11 58 -19 54 -30z m-13 -312 c0 -5 -13 -11
-30 -14 -45 -10 -41 -39 5 -31 22 3 35 1 35 -5 0 -6 -11 -11 -25 -11 -14 0
-28 -7 -32 -15 -8 -24 3 -29 36 -17 17 6 33 7 36 2 5 -7 -53 -30 -76 -30 -6 0
-29 78 -29 99 0 5 12 14 28 19 35 13 52 14 52 3z m1421 -27 c28 -5 39 -11 39
-24 0 -17 -4 -17 -59 -3 -45 11 -58 19 -54 30 3 8 12 12 20 9 8 -4 32 -9 54
-12z m13 -66 c23 -12 10 -28 -37 -44 l-32 -12 28 -7 c15 -4 27 -14 27 -22 0
-9 -6 -13 -14 -10 -8 3 -32 11 -55 18 -50 15 -53 36 -6 45 46 8 53 21 16 29
-19 4 -28 11 -25 20 4 10 14 11 42 3 20 -6 45 -15 56 -20z m-1464 -58 c0 -5 9
-10 19 -10 11 0 23 5 26 10 8 12 35 13 35 2 0 -5 -17 -16 -38 -24 -36 -14 -40
-14 -50 3 -15 23 -15 29 -2 29 6 0 10 -4 10 -10z m100 -34 c0 -5 -65 -46 -74
-46 -16 0 -3 21 22 34 26 15 52 20 52 12z m1261 -32 c24 -12 34 -13 45 -3 25
21 30 -1 8 -38 -22 -37 -39 -44 -39 -15 0 9 -14 24 -32 32 -18 8 -33 21 -33
28 0 16 15 15 51 -4z m-1231 -23 c0 -5 -25 -21 -55 -37 -54 -28 -54 -29 -69
-9 -17 23 -13 33 7 17 16 -14 28 -6 20 14 -3 8 -1 14 5 14 6 0 12 -5 14 -11 3
-8 13 -7 33 4 35 19 45 21 45 8z m1203 -54 l37 -32 -21 -33 c-24 -36 -50 -31
-30 6 17 32 12 39 -9 13 -17 -20 -21 -21 -26 -7 -3 9 -1 23 5 30 8 9 8 16 2
20 -6 4 -15 -3 -21 -14 -6 -11 -18 -20 -27 -20 -12 0 -6 -12 22 -41 l40 -40
-29 -25 c-32 -29 -59 -28 -65 1 -4 21 -18 35 -38 35 -19 0 -16 -16 12 -60 21
-33 23 -41 11 -46 -8 -3 -23 -1 -35 5 -29 16 -32 14 -26 -18 8 -47 -14 -49
-52 -5 -32 38 -42 64 -24 64 5 0 19 -12 30 -26 l21 -27 -6 32 c-7 34 2 39 39
20 21 -12 21 -12 3 15 -17 27 -17 28 3 47 11 10 35 19 53 20 28 0 30 2 17 11
-15 10 -13 17 19 60 20 26 41 48 47 48 5 0 27 -15 48 -33z m-1153 -23 c0 -3
-5 -14 -10 -25 -11 -20 -4 -24 20 -10 27 18 31 0 8 -40 -12 -21 -25 -39 -30
-39 -12 0 -10 13 9 40 18 26 21 25 -34 3 -13 -5 -15 -3 -10 10 4 9 10 24 14
33 5 14 3 15 -16 5 -12 -7 -27 -10 -34 -8 -7 3 4 12 23 20 36 17 60 21 60 11z
m100 -94 c14 -26 -14 -48 -41 -32 -15 10 -19 9 -19 -2 0 -8 6 -16 13 -19 6 -2
9 -8 5 -12 -10 -11 -38 14 -38 33 0 23 40 61 56 55 8 -3 19 -13 24 -23z m11
-84 c-18 -25 -37 -46 -42 -46 -13 0 -12 3 26 62 17 25 34 43 39 38 4 -4 -6
-29 -23 -54z m750 -3 c0 -10 3 -37 5 -61 7 -62 -16 -66 -73 -11 -40 39 -45 41
-39 19 21 -79 20 -87 -13 -95 -39 -8 -65 10 -57 39 3 11 -2 28 -10 37 -21 23
1 36 25 15 23 -21 34 -20 27 2 -7 22 41 47 60 31 15 -12 54 8 54 28 0 20 20
15 21 -4z m-478 -78 l-2 -28 20 22 c23 25 39 20 40 -12 0 -19 2 -19 11 6 5 15
16 27 24 27 14 0 14 -4 -6 -80 -9 -35 -31 -31 -44 8 l-11 33 -18 -31 c-10 -16
-25 -30 -33 -30 -15 0 -17 23 -8 83 8 43 30 45 27 2z m269 -31 c4 -27 3 -53
-2 -58 -15 -15 -19 -5 -26 58 -6 48 -5 58 7 54 8 -3 17 -26 21 -54z m-62 27
c16 -31 13 -91 -5 -91 -11 0 -15 11 -15 39 0 42 -16 63 -31 40 -5 -8 -9 -29
-9 -46 0 -18 -4 -33 -9 -33 -13 0 -21 71 -10 91 13 26 65 25 79 0z"/>
<path d="M1112 2088 c6 -18 28 -21 28 -4 0 9 -7 16 -16 16 -9 0 -14 -5 -12
-12z"/>
<path d="M1010 2036 c0 -9 5 -16 10 -16 6 0 10 4 10 9 0 6 -4 13 -10 16 -5 3
-10 -1 -10 -9z"/>
<path d="M1193 1925 c-221 -40 -414 -228 -467 -455 -33 -138 -12 -295 57 -425
18 -33 63 -91 102 -130 118 -119 260 -178 425 -178 210 0 381 92 499 269 225
336 55 791 -339 908 -74 22 -189 27 -277 11z m297 -39 c179 -61 312 -191 372
-364 19 -56 23 -87 22 -187 0 -86 -5 -134 -17 -168 -69 -195 -208 -332 -392
-389 -103 -32 -233 -29 -342 6 -254 83 -416 317 -400 581 17 283 221 506 502
549 62 9 185 -4 255 -28z"/>
<path d="M1176 1884 c-190 -46 -356 -206 -411 -396 -20 -69 -22 -205 -5 -279
31 -137 123 -268 244 -347 317 -206 745 -44 851 323 25 87 23 232 -5 315 -65
194 -213 335 -407 385 -70 18 -189 18 -267 -1z m72 -302 l3 -113 -113 3 -113
3 -3 113 -3 113 113 -3 113 -3 3 -113z m104 -9 l3 -128 120 -1 120 0 0 -40 0
-39 -123 -3 c-121 -3 -123 -3 -120 -25 3 -21 8 -22 123 -25 l120 -3 -3 -39 -4
-40 -119 0 -119 0 0 -120 c0 -103 -2 -121 -17 -128 -10 -6 -28 -6 -40 -1 -22
8 -23 13 -23 128 l0 120 -117 3 -117 3 -7 35 c-4 19 -6 37 -3 39 2 2 58 3 124
2 l120 -2 0 25 0 25 -122 3 -123 3 -3 38 -3 37 98 1 c54 1 110 0 126 -1 l27
-2 0 131 0 131 40 0 39 0 3 -127z m48 12 c0 -65 -4 -115 -9 -115 -5 0 -11 44
-13 99 -3 108 -1 131 13 131 5 0 9 -51 9 -115z m50 0 c0 -96 -3 -115 -15 -115
-12 0 -15 19 -15 115 0 96 3 115 15 115 12 0 15 -19 15 -115z m50 0 c0 -96 -3
-115 -15 -115 -12 0 -15 19 -15 115 0 96 3 115 15 115 12 0 15 -19 15 -115z
m50 0 c0 -96 -3 -115 -15 -115 -12 0 -15 19 -15 115 0 96 3 115 15 115 12 0
15 -19 15 -115z m50 0 c0 -96 -3 -115 -15 -115 -12 0 -15 19 -15 115 0 96 3
115 15 115 12 0 15 -19 15 -115z m-427 -384 l67 -1 0 -96 c0 -72 -3 -95 -12
-92 -9 3 -14 31 -16 81 l-3 77 -74 0 c-43 0 -77 5 -81 11 -8 14 13 28 35 24 9
-2 46 -4 84 -4z m397 -3 c0 -45 -139 -188 -182 -188 -5 0 -8 45 -8 100 l0 100
95 0 c69 0 95 -3 95 -12z m-389 -83 c1 -14 1 -34 1 -45 0 -32 -1 -33 -17 -20
-8 7 -15 23 -15 36 0 19 -5 24 -24 24 -13 0 -29 7 -36 15 -11 13 -6 15 39 15
47 0 51 -2 52 -25z"/>
<path d="M1050 1585 l0 -85 85 0 85 0 0 85 0 85 -85 0 -85 0 0 -85z"/>
<path d="M1300 1545 l0 -125 -112 -1 c-62 -1 -119 -1 -125 0 -7 1 -13 -5 -13
-14 0 -13 19 -15 125 -15 l125 0 0 -50 0 -50 -107 -2 c-60 0 -116 0 -126 0
-11 1 -17 -3 -15 -10 3 -9 40 -14 126 -16 l122 -3 0 -124 c0 -72 4 -126 10
-130 6 -4 10 40 10 124 l0 131 126 0 c96 0 125 3 121 13 -3 8 -38 12 -123 14
l-119 1 -3 51 -3 51 125 0 c105 0 126 2 126 15 0 13 -21 15 -125 15 l-125 0 0
125 c0 77 -4 125 -10 125 -6 0 -10 -48 -10 -125z"/>
<path d="M1400 1115 c0 -39 4 -65 11 -65 6 0 35 24 65 54 30 30 54 59 54 65 0
7 -26 11 -65 11 l-65 0 0 -65z"/>
<path d="M772 1901 c4 -13 18 -16 19 -4 0 4 -5 9 -11 12 -7 2 -11 -2 -8 -8z"/>
<path d="M1772 1881 c4 -13 18 -16 19 -4 0 4 -5 9 -11 12 -7 2 -11 -2 -8 -8z"/>
<path d="M1835 791 c-6 -11 9 -23 19 -14 9 9 7 23 -3 23 -6 0 -12 -4 -16 -9z"/>
<path d="M840 785 c0 -8 7 -15 16 -15 14 0 14 3 4 15 -7 8 -14 15 -16 15 -2 0
-4 -7 -4 -15z"/>
<path d="M1600 651 c0 -6 5 -13 10 -16 6 -3 10 1 10 9 0 9 -4 16 -10 16 -5 0
-10 -4 -10 -9z"/>
<path d="M1490 590 c0 -5 7 -10 15 -10 8 0 15 5 15 10 0 6 -7 10 -15 10 -8 0
-15 -4 -15 -10z"/>
</g>
</svg>
